<?xml version="1.0" encoding="utf-8"?>
<!-- Generator: Adobe Illustrator 22.0.1, SVG Export Plug-In . SVG Version: 6.00 Build 0)  -->
<svg version="1.1" id="Capa_2" xmlns="http://www.w3.org/2000/svg" xmlns:xlink="http://www.w3.org/1999/xlink" x="0px" y="0px"
	 viewBox="0 0 144 144" style="enable-background:new 0 0 144 144;" xml:space="preserve">
<style type="text/css">
	.st0{fill:#F213B7;}
	.st1{fill:#8F00FF;}
</style>
<g>
	<polygon class="st0" points="62.5,82.4 28.5,48.5 20,57 45.5,82.4 20,108 28.5,116.4 62.4,82.5 62.4,82.5 	"/>
	<g>
		<path class="st0" d="M119.9,116.4H78.1c-2.2,0-4.1,0-4.1,0v-12c0,0,1.8,0,4.1,0h41.8c2.2,0,4.1,0,4.1,0v12
			C124,116.4,122.2,116.4,119.9,116.4z"/>
		<path class="st1" d="M122.2,43.7l-10.4,3.3c-1.2-3.5-2.8-6.1-4.8-7.8c-2-1.7-4.7-2.5-8.1-2.5c-3.2,0-5.7,0.9-7.4,2.6
			c-1.7,1.7-2.6,3.7-2.6,5.9c0,2.4,1,4.4,2.9,5.8c2,1.4,5.9,3.2,11.7,5.2c5,1.7,8.8,3.4,11.5,4.9c2.7,1.6,4.9,3.6,6.5,6.3
			c1.7,2.6,2.5,5.6,2.5,9.1c0,5.6-2.2,10.4-6.5,14.3c-4.4,3.9-10.5,5.9-18.3,5.9c-13.5,0-21.9-6.2-25.2-18.6l10.9-2.8
			c1.9,8.2,6.8,12.3,14.8,12.3c3.9,0,6.9-0.9,8.9-2.8c2-1.8,3-4.1,3-6.8c0-2-0.7-3.8-2.1-5.5c-1.4-1.7-4.9-3.5-10.4-5.4
			c-5.9-2-10.1-3.7-12.7-5.1c-2.6-1.4-4.8-3.5-6.6-6.2S77,49.8,77,46.3c0-5.3,2-9.8,6.1-13.4c4.1-3.6,9.5-5.4,16.2-5.4
			C111.3,27.6,118.9,32.9,122.2,43.7z"/>
	</g>
</g>
</svg>
