<?xml version="1.0" encoding="utf-8"?>
<!-- Generator: Adobe Illustrator 22.0.1, SVG Export Plug-In . SVG Version: 6.00 Build 0)  -->
<svg version="1.1" id="Capa_1" xmlns="http://www.w3.org/2000/svg" xmlns:xlink="http://www.w3.org/1999/xlink" x="0px" y="0px"
	 viewBox="0 0 100 100" style="enable-background:new 0 0 100 100;" xml:space="preserve">
<style type="text/css">
	.st0{fill:#F213B7;}
	.st1{fill:#8F00FF;}
</style>
<g>
	<polygon class="st0" points="41,59.8 9,27.8 1,35.8 25,59.8 1,83.9 9,91.9 41,59.9 41,59.9 	"/>
	<g>
		<path class="st0" d="M95.2,91.9H55.7c-2.1,0-3.8,0-3.8,0V80.6c0,0,1.7,0,3.8,0h39.4c2.1,0,3.8,0,3.8,0v11.3
			C99,91.9,97.3,91.9,95.2,91.9z"/>
		<path class="st1" d="M97.3,23.3l-9.8,3.1C86.4,23,84.8,20.6,83,19c-1.9-1.6-4.4-2.4-7.7-2.4c-3,0-5.3,0.8-7,2.4
			c-1.6,1.6-2.5,3.5-2.5,5.6c0,2.3,0.9,4.1,2.8,5.5c1.8,1.4,5.5,3,11,4.9c4.7,1.6,8.3,3.2,10.8,4.6c2.5,1.5,4.6,3.4,6.2,5.9
			c1.6,2.5,2.4,5.3,2.4,8.6c0,5.3-2.1,9.8-6.2,13.5c-4.1,3.7-9.9,5.6-17.3,5.6c-12.8,0-20.7-5.9-23.7-17.6L62.1,53
			c1.8,7.7,6.5,11.6,14,11.6c3.7,0,6.5-0.9,8.4-2.6c1.9-1.7,2.9-3.9,2.9-6.4c0-1.9-0.7-3.6-2-5.2c-1.3-1.6-4.6-3.3-9.8-5.1
			c-5.5-1.9-9.5-3.5-12-4.8c-2.4-1.3-4.5-3.3-6.3-5.8c-1.7-2.6-2.6-5.5-2.6-8.8c0-5,1.9-9.2,5.8-12.6c3.8-3.4,8.9-5.1,15.3-5.1
			C87,8.1,94.2,13.2,97.3,23.3z"/>
	</g>
</g>
</svg>
