<?xml version="1.0" encoding="utf-8"?>
<!-- Generator: Adobe Illustrator 22.0.1, SVG Export Plug-In . SVG Version: 6.00 Build 0)  -->
<svg version="1.1" id="Capa_1" xmlns="http://www.w3.org/2000/svg" xmlns:xlink="http://www.w3.org/1999/xlink" x="0px" y="0px"
	 viewBox="0 0 67.2 32" style="enable-background:new 0 0 67.2 32;" xml:space="preserve">
<style type="text/css">
	.st0{fill:#8C3DD8;}
	.st1{fill-rule:evenodd;clip-rule:evenodd;fill:#8C3DD8;}
</style>
<g>
	<path class="st0" d="M15.9,0.2l5.7,19.4l5.7-19.4h4.1h11.3v1.9l-5.8,10c2,0.7,3.6,1.9,4.6,3.6c1.1,1.7,1.6,3.8,1.6,6.1
		c0,2.9-0.8,5.3-2.3,7.3c-1.5,2-3.5,2.9-5.9,2.9c-1.8,0-3.4-0.6-4.8-1.7c-1.4-1.2-2.4-2.7-3-4.7l3.2-1.3c0.5,1.2,1.1,2.2,1.9,2.8
		c0.8,0.7,1.7,1,2.7,1c1.1,0,2-0.6,2.8-1.9c0.8-1.2,1.1-2.7,1.1-4.4c0-1.9-0.4-3.4-1.2-4.4c-0.9-1.2-2.4-1.9-4.4-1.9h-1.6v-1.9
		l5.5-9.5h-6.6l-0.4,0.6L22,32h-0.4l-5.9-19.7L9.8,32H9.4L0,0.2h4.1l5.7,19.4l3.8-13l-1.9-6.3H15.9L15.9,0.2z"/>
	<path class="st1" d="M64.2,1.8C64.8,1.8,65,2,65,2.4C65,2.8,64.8,3,64.2,3h-0.5V1.8H64.2L64.2,1.8z M64.3,1.4H63v3.4h0.6V3.4h0.6
		L65,4.8h0.7l-0.8-1.6c0.5-0.1,0.8-0.4,0.8-0.9C65.7,1.7,65.2,1.4,64.3,1.4L64.3,1.4z M66.8,3.2c0,0.7-0.3,1.3-0.8,1.8
		c-0.5,0.5-1.2,0.8-1.9,0.8c-0.7,0-1.3-0.3-1.8-0.8c-0.5-0.5-0.8-1.1-0.8-1.8c0-0.7,0.3-1.4,0.8-1.9c0.5-0.5,1.1-0.7,1.8-0.7
		c0.7,0,1.4,0.3,1.9,0.8C66.5,1.8,66.8,2.5,66.8,3.2L66.8,3.2z M64.2,0.2c-0.8,0-1.5,0.3-2.1,0.9c-0.6,0.6-0.9,1.4-0.9,2.2
		c0,0.8,0.3,1.5,0.9,2.1c0.6,0.6,1.3,0.9,2.1,0.9c0.8,0,1.6-0.3,2.1-0.9c0.6-0.6,0.9-1.3,0.9-2.1c0-0.8-0.3-1.6-0.9-2.1
		C65.8,0.5,65,0.2,64.2,0.2L64.2,0.2z"/>
	<path class="st0" d="M59.1,0l0.7,4.1l-2.4,4.5c0,0-0.9-1.9-2.4-3c-1.3-0.9-2.1-1.1-3.4-0.8c-1.7,0.3-3.5,2.3-4.4,4.8
		c-1,2.9-1,4.3-1,5.7c0,2.1,0.3,3.3,0.3,3.3s-1.4-2.7-1.4-6.5c0-2.8,0.5-5.3,1.7-7.8c1.1-2.2,2.8-3.5,4.3-3.7
		c1.5-0.2,2.8,0.6,3.7,1.4c1,0.8,2,2.7,2,2.7L59.1,0L59.1,0z"/>
	<path class="st0" d="M59.4,23c0,0-1,1.9-1.7,2.6c-0.7,0.7-1.8,2-3.3,2.6c-1.4,0.6-2.2,0.8-3.6,0.6c-1.4-0.1-2.7-1-3.2-1.3
		c-0.5-0.3-1.6-1.4-2.3-2.3c-0.7-0.9-1.7-2.8-1.7-2.8s0.6,1.9,0.9,2.7c0.2,0.5,0.9,1.9,1.8,3.1c0.9,1.1,2.5,3.1,5,3.6
		c2.5,0.4,4.2-0.7,4.7-1c0.4-0.3,1.3-1,1.9-1.6c0.6-0.6,1.2-1.5,1.5-1.9c0.2-0.4,0.6-1.1,0.6-1.1L59.4,23L59.4,23z"/>
</g>
</svg>
