<?xml version="1.0" encoding="utf-8"?>
<!-- Generator: Adobe Illustrator 22.0.1, SVG Export Plug-In . SVG Version: 6.00 Build 0)  -->
<svg version="1.1" id="Capa_1" xmlns="http://www.w3.org/2000/svg" xmlns:xlink="http://www.w3.org/1999/xlink" x="0px" y="0px"
	 viewBox="0 0 16 16" style="enable-background:new 0 0 16 16;" xml:space="preserve">
<style type="text/css">
	.st0{fill:#F213B7;}
	.st1{fill:#8F00FF;}
</style>
<g>
	<polygon class="st0" points="6.5,9.6 1.3,4.4 0,5.7 3.9,9.6 0,13.5 1.3,14.8 6.5,9.6 6.5,9.6 	"/>
	<g>
		<path class="st0" d="M15.4,14.8H8.9c-0.3,0-0.6,0-0.6,0V13c0,0,0.3,0,0.6,0h6.4c0.3,0,0.6,0,0.6,0v1.8
			C16,14.8,15.7,14.8,15.4,14.8z"/>
		<path class="st1" d="M15.7,3.6l-1.6,0.5c-0.2-0.5-0.4-0.9-0.7-1.2c-0.3-0.3-0.7-0.4-1.3-0.4c-0.5,0-0.9,0.1-1.1,0.4
			c-0.3,0.3-0.4,0.6-0.4,0.9c0,0.4,0.2,0.7,0.5,0.9c0.3,0.2,0.9,0.5,1.8,0.8c0.8,0.3,1.4,0.5,1.8,0.8c0.4,0.2,0.7,0.6,1,1
			C15.9,7.7,16,8.1,16,8.7c0,0.9-0.3,1.6-1,2.2c-0.7,0.6-1.6,0.9-2.8,0.9c-2.1,0-3.4-1-3.9-2.9L10,8.5c0.3,1.3,1.1,1.9,2.3,1.9
			c0.6,0,1.1-0.1,1.4-0.4c0.3-0.3,0.5-0.6,0.5-1c0-0.3-0.1-0.6-0.3-0.8c-0.2-0.3-0.8-0.5-1.6-0.8c-0.9-0.3-1.6-0.6-2-0.8
			c-0.4-0.2-0.7-0.5-1-1C8.9,5.1,8.8,4.6,8.8,4.1c0-0.8,0.3-1.5,0.9-2.1c0.6-0.6,1.5-0.8,2.5-0.8C14,1.2,15.2,2,15.7,3.6z"/>
	</g>
</g>
</svg>
