<?xml version="1.0" encoding="utf-8"?>
<!-- Generator: Adobe Illustrator 22.0.1, SVG Export Plug-In . SVG Version: 6.00 Build 0)  -->
<svg version="1.1" id="Objects" xmlns="http://www.w3.org/2000/svg" xmlns:xlink="http://www.w3.org/1999/xlink" x="0px" y="0px"
	 viewBox="0 0 635.6 639" style="enable-background:new 0 0 635.6 639;" xml:space="preserve">
<style type="text/css">
	.st0{fill:none;stroke:#6A6A79;stroke-width:2;stroke-miterlimit:10;}
	.st1{fill:#6A6A79;}
	.st2{fill:none;stroke:#065170;stroke-width:1.6606;stroke-miterlimit:10;}
	.st3{fill:#FFFFFF;}
	.st4{fill:#F4F4F4;}
	.st5{fill:none;stroke:#8F00FF;stroke-width:1.6606;stroke-miterlimit:10;}
	.st6{fill:none;stroke:#06A2AE;stroke-width:1.6606;stroke-miterlimit:10;}
	.st7{fill:none;stroke:#8F00FF;stroke-width:2;stroke-miterlimit:10;}
	.st8{fill:#8F00FF;}
	.st9{fill:none;stroke:#F213B7;stroke-width:1.6606;stroke-miterlimit:10;}
	.st10{fill:none;stroke:#F213B7;stroke-width:1.7755;stroke-miterlimit:10;}
	.st11{fill:#F213B7;}
</style>
<g>
	<line class="st0" x1="520.5" y1="207.5" x2="476.1" y2="236.6"/>
	<path class="st0" d="M416,317.9c0-54.8-44.4-99.2-99.2-99.2"/>
	<path class="st0" d="M469.4,412.2c16.6-27.1,26.2-59,26.2-93.2c0-29.7-7.3-57.8-20.1-82.4"/>
	<path class="st0" d="M318,463.3c39.4-1.4,73.1-18.7,98.5-45.6c24.6-26,39.6-61.2,39.6-99.8"/>
	<path class="st0" d="M511.4,439.9C533.1,404.8,547,358.3,547,314c0-38.7-9.6-75.2-26.5-107.2"/>
	<path class="st0" d="M316.8,594.8c52.8,0,102.2-14.8,144.1-40.4c34-20.8,63.2-48.7,85.5-81.7"/>
	<path class="st1" d="M420,317.9c0-2.2-1.8-4-4-4s-4,1.8-4,4s1.8,4,4,4S420,320.2,420,317.9z"/>
	<path class="st1" d="M517.4,437.8c0-3.3-2.7-6-6-6s-6,2.7-6,6s2.7,6,6,6S517.4,441.1,517.4,437.8z"/>
	<path class="st1" d="M484.6,236.6c0-4.7-3.8-8.5-8.5-8.5s-8.5,3.8-8.5,8.5s3.8,8.5,8.5,8.5C480.8,245.1,484.6,241.3,484.6,236.6z"
		/>
	<path class="st1" d="M535.9,206.7c0-8.8-7.2-16-16-16s-16,7.2-16,16s7.2,16,16,16S535.9,215.6,535.9,206.7z"/>
	<path class="st1" d="M483.1,410.7c0-7.2-5.8-13-13-13s-13,5.8-13,13s5.8,13,13,13S483.1,417.9,483.1,410.7z"/>
	<line class="st0" x1="511.4" y1="438.6" x2="546.4" y2="474.7"/>
	<line class="st2" x1="318.4" y1="463.3" x2="318.4" y2="594.8"/>
	<line class="st0" x1="416" y1="317.9" x2="456.1" y2="317.9"/>
	<g>
		<path class="st1" d="M346.6,219c0-16-13-29-29-29s-29,13-29,29s13,29,29,29C333.5,248,346.6,235.2,346.6,219z"/>
	</g>
	<path class="st3" d="M322.6,225c1.3,2.1,3,3.6,5.9,3.6c2.5,0,4.1-1.2,4.1-3c0-2.1-1.6-2.8-4.4-4l-1.5-0.6c-4.3-1.8-7.2-4.1-7.2-9
		c0-4.5,3.4-7.9,8.8-7.9c3.8,0,6.5,1.3,8.5,4.8l-4.7,3c-1-1.8-2.1-2.6-3.9-2.6c-1.8,0-2.9,1.1-2.9,2.6c0,1.8,1.1,2.5,3.7,3.6
		l1.5,0.6c5.1,2.2,8,4.4,8,9.4c0,5.4-4.2,8.3-9.9,8.3c-5.6,0-9.2-2.7-10.9-6.1L322.6,225z M301.5,225.5c0.9,1.7,1.8,3.1,3.9,3.1
		c2,0,3.2-0.8,3.2-3.8v-20.4h6v20.4c0,6.2-3.6,9-8.9,9c-4.8,0-7.6-2.5-9-5.5L301.5,225.5z"/>
	<g>
		<path class="st1" d="M586.4,474.7c0-22.1-17.9-40-40-40s-40,17.9-40,40s17.9,40,40,40S586.4,496.8,586.4,474.7z"/>
		<path class="st4" d="M545.4,460.5c17.1,0,30.3,7.2,30.3,15.2s-13.2,15.1-30.3,15.1s-30.3-7.2-30.3-15.1S528.3,460.5,545.4,460.5
			 M545.4,458.9c-17.7,0-32,7.5-32,16.8s14.3,16.8,32,16.8s32-7.5,32-16.8S563.1,458.9,545.4,458.9z M535.2,474.3
			c-0.8,4.1-3.6,3.6-7,3.6l1.4-7.1C533.4,470.9,536,470.5,535.2,474.3L535.2,474.3z M523.2,485.1h3.7l0.9-4.5c4.1,0,6.7,0.3,9-1.9
			c2.6-2.4,3.3-6.7,1.4-8.8c-1-1.1-2.5-1.7-4.6-1.7h-7.1L523.2,485.1z M541.7,463.8h3.6l-0.9,4.5c3.1,0,6.1-0.2,7.5,1.1
			c1.5,1.4,0.8,3.1-0.8,11.3h-3.7c1.5-7.9,1.8-8.6,1.3-9.2s-1.8-0.5-4.7-0.5l-1.9,9.7h-3.6L541.7,463.8L541.7,463.8z M563.9,474.3
			c-0.8,4.1-3.7,3.6-7,3.6l1.4-7.1C562.1,470.9,564.7,470.5,563.9,474.3L563.9,474.3z M551.8,485.1h3.7l0.9-4.5c4.3,0,6.7,0.3,9-1.9
			c2.6-2.4,3.3-6.7,1.4-8.8c-1-1.1-2.5-1.7-4.6-1.7h-7.1L551.8,485.1z M545.4,492.6c-17.7,0-32.1-7.6-32.1-17s14.4-17,32.1-17
			s32.1,7.6,32.1,17S563.1,492.6,545.4,492.6z M545.4,459c-17.6,0-31.9,7.5-31.9,16.7s14.3,16.7,31.9,16.7
			c17.6,0,31.9-7.5,31.9-16.7S563,459,545.4,459z M545.4,491c-8.2,0-15.9-1.6-21.6-4.6c-5.6-2.9-8.8-6.8-8.8-10.7s3.2-7.8,8.8-10.7
			c5.8-3,13.5-4.6,21.6-4.6c8.2,0,15.9,1.6,21.6,4.6c5.6,2.9,8.8,6.8,8.8,10.7s-3.2,7.8-8.8,10.7C561.3,489.3,553.6,491,545.4,491z
			 M545.4,460.7c-16.4,0-30.2,6.9-30.2,15s13.8,15,30.2,15s30.2-6.9,30.2-15S561.8,460.7,545.4,460.7z M555.6,485.2h-3.9v-0.1
			l3.3-17h7.2c2.2,0,3.8,0.6,4.7,1.7c1.9,2.2,1.2,6.6-1.4,9c-2.1,2-4.3,2-7.9,1.9c-0.4,0-0.7,0-1.1,0L555.6,485.2z M552,485h3.4
			l0.9-4.5h0.1c0.4,0,0.8,0,1.2,0c3.5,0,5.7,0,7.7-1.9c2.6-2.3,3.2-6.5,1.4-8.6c-0.9-1.1-2.5-1.6-4.6-1.6h-7L552,485z M526.9,485.2
			H523v-0.1l3.3-17h7.2c2.2,0,3.8,0.6,4.7,1.7c1.9,2.2,1.2,6.6-1.4,9c-2.1,2-4.4,2-7.8,2c-0.4,0-0.8,0-1.2,0L526.9,485.2z
			 M523.3,485h3.4l0.9-4.5h0.1c0.5,0,0.9,0,1.3,0c3.3,0,5.6,0,7.6-1.9c2.6-2.3,3.2-6.5,1.4-8.6c-0.9-1.1-2.5-1.6-4.6-1.6h-7
			L523.3,485z M551.3,480.7h-4v-0.1c0.3-1.5,0.5-2.7,0.7-3.8c0.9-4.3,1-4.9,0.6-5.3s-1.3-0.4-3.3-0.4c-0.4,0-0.8,0-1.2,0l-1.9,9.7
			h-3.9v-0.1l3.3-17h3.9l-0.9,4.5c0.4,0,0.7,0,1.1,0c2.7,0,5.1-0.1,6.3,1.1c1.3,1.2,1,2.6-0.1,7.8
			C551.7,478.1,551.4,479.3,551.3,480.7L551.3,480.7z M547.6,480.5h3.4c0.3-1.3,0.5-2.5,0.7-3.5c1-5.1,1.3-6.5,0.1-7.6
			s-3.5-1.1-6.2-1c-0.4,0-0.8,0-1.2,0h-0.2l0.9-4.5h-3.4l-3.2,16.6h3.4l1.9-9.7h0.1c0.5,0,0.9,0,1.3,0c2.1,0,3,0,3.5,0.5
			s0.4,1-0.5,5.5C548.1,477.9,547.9,479.1,547.6,480.5z M558.7,478.1c-0.3,0-0.6,0-0.9,0s-0.6,0-1,0h-0.2V478l1.4-7.2h0.1
			c0.3,0,0.7,0,1,0c2.1,0,3.7,0,4.4,0.9c0.5,0.6,0.6,1.4,0.3,2.7l0,0C563.4,477.8,561.3,478.1,558.7,478.1z M557.1,477.8
			c0.3,0,0.5,0,0.8,0c2.9,0,5.2,0.1,5.9-3.5c0.2-1.2,0.1-2-0.3-2.5c-0.7-0.8-2.2-0.8-4.2-0.8c-0.3,0-0.6,0-0.9,0L557.1,477.8z
			 M529.9,478.1c-0.3,0-0.5,0-0.8,0s-0.6,0-0.9,0H528V478l1.4-7.2h0.1c0.3,0,0.7,0,1,0c2.1,0,3.7,0,4.4,0.9c0.5,0.6,0.6,1.4,0.3,2.7
			l0,0C534.7,477.8,532.6,478.1,529.9,478.1z M528.4,477.8c0.2,0,0.5,0,0.7,0c3,0,5.3,0.1,6-3.5l0,0c0.2-1.2,0.1-2-0.3-2.5
			c-0.7-0.8-2.3-0.8-4.2-0.8c-0.3,0-0.6,0-0.9,0L528.4,477.8z"/>
	</g>
	<g>
		<path class="st1" d="M490.5,319.2c0-18.8-15.2-34-34-34s-34,15.2-34,34s15.2,34,34,34S490.5,337.9,490.5,319.2z"/>
		<path class="st4" d="M452.4,320.5h8.2l-4.1-9.8L452.4,320.5L452.4,320.5z M456.5,295.2l-22.3,8l3.4,29.5l18.9,10.5l18.9-10.5
			l3.4-29.5L456.5,295.2z M470.5,331.8h-5.2l-2.8-7h-11.8l-2.8,7h-5.2l13.9-31.3L470.5,331.8z"/>
	</g>
	<g>
		<g>
			<path class="st1" d="M363.7,594.5c0-24.6-19.9-44.5-44.5-44.5s-44.5,19.9-44.5,44.5s19.9,44.5,44.5,44.5
				C343.8,639,363.7,619.1,363.7,594.5z"/>
		</g>
		<path class="st4" d="M340.6,597.5c-2.1,0-3.9,0.5-5.4,1.3c-0.6-1.1-1.1-2.1-1.2-2.8c-0.1-0.9-0.2-1.4-0.1-2.4s0.7-2.4,0.7-2.5
			s-0.1-0.6-1.3-0.6c-1.2,0-2.2,0.2-2.4,0.6c-0.1,0.3-0.4,1-0.5,1.8c-0.2,1.1-2.4,5-3.7,7.1c-0.4-0.8-0.8-1.5-0.8-2.1
			c-0.1-0.9-0.2-1.4-0.1-2.4s0.7-2.4,0.7-2.5s-0.1-0.6-1.3-0.6c-1.2,0-2.2,0.2-2.4,0.6c-0.1,0.3-0.3,1.1-0.5,1.8s-3.2,7.2-3.9,8.9
			c-0.4,0.9-0.7,1.6-1,2s0,0,0,0.1c-0.2,0.4-0.3,0.6-0.3,0.6l0,0c-0.2,0.3-0.3,0.6-0.4,0.6s-0.2-0.8,0-1.9c0.4-2.3,1.5-5.8,1.5-5.9
			c0-0.1,0.2-0.7-0.7-1c-0.9-0.3-1.2,0.2-1.2,0.2l-0.1,0.2c0,0,0.9-4-1.8-4c-1.7,0-4.1,1.9-5.3,3.6c-0.7,0.4-2.3,1.3-4,2.2
			c-0.6,0.4-1.3,0.7-1.9,1.1l-0.1-0.1c-3.4-3.6-9.6-6.1-9.3-10.9c0.1-1.8,0.7-6.4,11.9-11.9c9.2-4.6,16.5-3.3,17.8-0.5
			c1.8,4-3.9,11.4-13.5,12.5c-3.6,0.4-5.5-1-6-1.5c-0.5-0.6-0.6-0.6-0.8-0.5c-0.3,0.2-0.1,0.7,0,0.9c0.3,0.7,1.5,2.1,3.4,2.7
			c1.8,0.6,6,0.9,11.2-1.1c5.8-2.2,10.3-8.4,9-13.6c-1.3-5.3-10.1-7-18.4-4.1c-4.9,1.8-10.3,4.5-14.1,8.1c-4.6,4.3-5.3,8-5,9.6
			c1.1,5.5,8.7,9.1,11.7,11.8c-0.1,0.1-0.3,0.2-0.4,0.2c-1.5,0.8-7.3,3.8-8.8,7c-1.6,3.6,0.3,6.2,1.5,6.6c3.9,1.1,7.9-0.9,10.1-4.1
			s1.9-7.4,0.9-9.3c0,0,0,0,0-0.1c0.4-0.2,0.8-0.5,1.2-0.7c0.8-0.5,1.5-0.9,2.2-1.2c-0.4,1-0.6,2.2-0.8,4c-0.2,2.1,0.7,4.7,1.8,5.8
			c0.5,0.5,1.1,0.5,1.4,0.5c1.3,0,1.9-1.1,2.5-2.3c0.8-1.6,1.5-3.4,1.5-3.4s-0.9,4.9,1.5,4.9c0.9,0,1.8-1.1,2.2-1.7l0,0
			c0,0,0,0,0.1-0.1s0.1-0.2,0.1-0.2l0,0c0.4-0.6,1.1-2,2.3-4.3c1.5-3,3-6.7,3-6.7s0.1,0.9,0.6,2.4c0.3,0.9,0.8,1.9,1.3,2.8
			c-0.4,0.5-0.6,0.8-0.6,0.8l0,0c-0.3,0.4-0.6,0.8-0.9,1.2c-1.2,1.4-2.6,3.1-2.8,3.5c-0.2,0.6-0.2,1,0.3,1.3
			c0.3,0.2,0.9,0.3,1.5,0.2c1.1-0.1,1.8-0.3,2.2-0.5c0.6-0.2,1.3-0.5,1.9-1c1.2-0.9,1.9-2.1,1.8-3.7c0-0.9-0.3-1.8-0.7-2.6
			c0.1-0.1,0.2-0.3,0.3-0.5c1.9-2.7,3.3-5.7,3.3-5.7s0.1,0.9,0.6,2.4c0.2,0.8,0.7,1.6,1.1,2.4c-1.7,1.4-2.8,3.1-3.2,4.1
			c-0.7,2-0.1,2.9,0.9,3.1c0.5,0.1,1.1-0.1,1.6-0.3c0.6-0.2,1.3-0.5,2-1c1.2-0.9,2.3-2.1,2.2-3.7c0-0.7-0.2-1.5-0.5-2.2
			c1.5-0.6,3.4-1,5.8-0.7c5.2,0.6,6.2,3.9,6,5.2c-0.2,1.4-1.3,2.1-1.7,2.3c-0.4,0.2-0.5,0.3-0.4,0.5c0,0.2,0.2,0.2,0.5,0.2
			c0.4-0.1,2.7-1.1,2.8-3.6C349.1,601,346,597.5,340.6,597.5L340.6,597.5z M300.4,611.1c-1.7,1.9-4.1,2.6-5.2,2s-0.7-3.4,1.5-5.4
			c1.3-1.2,3-2.3,4.1-3c0.3-0.1,0.6-0.4,1.1-0.6c0.1,0,0.1-0.1,0.1-0.1c0.1-0.1,0.2-0.1,0.3-0.2
			C302.9,606.6,302.2,609.1,300.4,611.1L300.4,611.1z M312.9,602.5c-0.6,1.5-1.9,5.2-2.6,5s-1.1-3-0.1-5.8c0.5-1.4,1.5-3.1,2.1-3.8
			c0.9-1.1,2-1.4,2.2-1C314.8,597.5,313.3,601.6,312.9,602.5L312.9,602.5z M323.4,607.5c-0.3,0.1-0.5,0.2-0.6,0.1
			c-0.1,0,0.1-0.2,0.1-0.2s1.3-1.4,1.8-2c0.3-0.4,0.6-0.8,1-1.3v0.1C325.7,605.9,324.1,607,323.4,607.5z M331.4,605.6
			c-0.2-0.1-0.2-0.6,0.5-1.9c0.2-0.5,0.8-1.4,1.8-2.3c0.1,0.4,0.2,0.7,0.2,1C333.8,604.5,332.3,605.3,331.4,605.6L331.4,605.6z"/>
	</g>
	<g>
		<line class="st5" x1="161.8" y1="145.8" x2="212.6" y2="209.6"/>
		<line class="st6" x1="86.7" y1="316.4" x2="35.5" y2="316.4"/>
		<path class="st5" d="M414.1,215.7c-26.4-26.7-63-43.2-103.5-43.2c-38.3,0-73.2,14.8-99.2,39.1"/>
		<path class="st5" d="M86.7,314c0-51.1,16.2-98.6,44.9-136.5c17.6-23.3,30.2-31.7,30.2-31.7"/>
		<path class="st7" d="M593.6,317.9c0-48.4-12.4-93.9-34.3-133.5c-20-36.3-47.9-67.5-81.4-91.6"/>
		<path class="st5" d="M40,317.9c0,42.3,9.5,82.4,26.4,118.2c15.3,32.3,36.6,61.1,62.5,85c11,10.2,22.9,19.5,35.5,27.8"/>
		<line class="st5" x1="199.8" y1="512" x2="164.4" y2="549"/>
		<path class="st8" d="M91.7,316.4c0-2.8-2.2-5-5-5s-5,2.2-5,5s2.2,5,5,5C89.4,321.4,91.7,319.2,91.7,316.4z"/>
		<path class="st8" d="M221.1,209.6c0-4.7-3.8-8.5-8.5-8.5s-8.5,3.8-8.5,8.5s3.8,8.5,8.5,8.5C217.3,218.2,221.1,214.4,221.1,209.6z"
			/>
		<path class="st5" d="M200.3,512.4c34.2,20.1,74,31.6,116.5,31.6c36.4,0,70.8-8.4,101.4-23.5"/>
		<path class="st8" d="M205.8,512c0-3.3-2.7-6-6-6s-6,2.7-6,6s2.7,6,6,6S205.8,515.3,205.8,512z"/>
		<line class="st7" x1="478" y1="92.9" x2="409.7" y2="213"/>
		<g>
			<path class="st8" d="M635.6,316.9c0-23.2-18.8-42-42-42s-42,18.8-42,42s18.8,42,42,42S635.6,340.1,635.6,316.9z"/>
			<g>
				<path class="st4" d="M562.6,302.1h17.1v4h-12.2v8.5h9.5v4h-9.5v9.3h12.3v4h-17.2L562.6,302.1L562.6,302.1z"/>
				<path class="st4" d="M600.9,308.8l-4.2,1.5c-0.5-1.6-1.1-2.7-2-3.5s-1.9-1.1-3.3-1.1c-1.3,0-2.3,0.4-3,1.1
					c-0.7,0.8-1.1,1.6-1.1,2.6c0,1.1,0.4,2,1.2,2.6s2.4,1.4,4.7,2.3c2,0.8,3.6,1.5,4.7,2.2c1.1,0.7,2,1.6,2.7,2.8
					c0.7,1.2,1,2.5,1,4.1c0,2.5-0.9,4.6-2.7,6.4s-4.2,2.6-7.4,2.6c-5.5,0-8.9-2.8-10.2-8.3l4.4-1.2c0.8,3.7,2.8,5.5,6,5.5
					c1.6,0,2.8-0.4,3.6-1.2c0.8-0.8,1.2-1.8,1.2-3c0-0.9-0.3-1.7-0.9-2.5c-0.6-0.8-2-1.6-4.2-2.4c-2.4-0.9-4.1-1.7-5.2-2.3
					c-1.1-0.6-2-1.5-2.7-2.8c-0.7-1.2-1.1-2.6-1.1-4.2c0-2.4,0.8-4.4,2.5-6s3.8-2.4,6.6-2.4C596.4,301.6,599.5,304,600.9,308.8z"/>
				<path class="st4" d="M624.3,308.8l-4.1,1.3c-0.7-3.1-2.2-4.7-4.5-4.7c-1.9,0-3.2,1-4.1,2.9c-0.9,1.9-1.4,4.9-1.5,8.8
					c1.3-2.9,3.4-4.4,6.4-4.4c2.3,0,4.2,0.9,5.8,2.6c1.6,1.8,2.4,4.1,2.4,7.1s-0.8,5.5-2.5,7.3s-3.9,2.7-6.7,2.7
					c-2.9,0-5.3-1.2-7.1-3.6s-2.7-6.1-2.7-11.2c0-5.2,0.9-9.2,2.7-12s4.3-4.1,7.5-4.1c2.1,0,3.9,0.6,5.4,1.7
					C622.6,304.5,623.7,306.3,624.3,308.8z M619.8,322.6c0-2-0.4-3.5-1.2-4.5s-1.8-1.5-3.2-1.5c-1.6,0-2.8,0.6-3.6,1.7
					c-0.8,1.2-1.2,2.6-1.2,4.3c0,1.8,0.4,3.2,1.3,4.4c0.9,1.1,2,1.7,3.5,1.7C618.3,328.7,619.8,326.6,619.8,322.6z"/>
			</g>
		</g>
		<g>
			<path class="st8" d="M522,92.3c0-24.3-19.7-44-44-44s-44,19.7-44,44s19.7,44,44,44S522,116.6,522,92.3z"/>
			<path class="st4" d="M454,67.1l4.4,49l19.6,5.4l19.7-5.5l4.4-49L454,67.1L454,67.1z M492.5,83.1L492.5,83.1h-23l0.5,6.2h21.9
				l-1.7,18.4l-12.3,3.4l0,0l0,0l0,0l-12.3-3.4l-0.8-9.4h6l0.4,4.8l6.7,1.8l0,0l6.7-1.8l0.7-7.8h-20.8l-1.6-18.2H493L492.5,83.1z"/>
		</g>
		<g>
			<path class="st8" d="M446.7,211.8c0-20.4-16.6-37-37-37s-37,16.6-37,37s16.6,37,37,37S446.7,232.2,446.7,211.8z"/>
			<path class="st4" d="M409.7,240c-0.7,0-1.5-0.2-2.2-0.6l-6.9-4.1c-1-0.6-0.5-0.8-0.2-0.9c1.4-0.5,1.7-0.6,3.1-1.4
				c0.2-0.1,0.4-0.1,0.5,0l5.3,3.1c0.2,0.1,0.5,0.1,0.6,0l20.7-11.9c0.2-0.1,0.3-0.3,0.3-0.6v-23.9c0-0.2-0.1-0.4-0.3-0.6
				l-20.7-11.9c-0.2-0.1-0.4-0.1-0.6,0l-20.6,11.9c-0.2,0.1-0.3,0.3-0.3,0.6v23.8c0,0.2,0.1,0.4,0.3,0.5l5.7,3.3
				c3.1,1.5,5-0.3,5-2.1v-23.3c0-0.3,0.3-0.6,0.6-0.6h2.6c0.3,0,0.6,0.3,0.6,0.6v23.6c0,4.1-2.2,6.4-6.1,6.4c-1.2,0-2.1,0-4.8-1.3
				l-5.4-3.1c-1.3-0.8-2.2-2.2-2.2-3.8v-23.8c0-1.5,0.8-3,2.2-3.8l20.6-11.9c1.3-0.7,3-0.7,4.3,0l20.7,11.9c1.3,0.8,2.2,2.2,2.2,3.8
				v23.8c0,1.5-0.8,3-2.2,3.8l-20.7,11.9C411.2,239.8,410.4,240,409.7,240z M426.4,216.5c0-4.5-3-5.7-9.4-6.5
				c-6.4-0.9-7.1-1.3-7.1-2.8c0-1.2,0.5-2.9,5.3-2.9c4.2,0,5.8,0.9,6.5,3.8c0.1,0.3,0.3,0.5,0.6,0.5h2.7c0.2,0,0.3-0.1,0.4-0.2
				c0.1-0.1,0.2-0.3,0.2-0.5c-0.4-4.9-3.7-7.2-10.3-7.2c-5.9,0-9.4,2.5-9.4,6.7c0,4.5,3.5,5.8,9.2,6.3c6.8,0.7,7.3,1.7,7.3,3
				c0,2.3-1.9,3.3-6.2,3.3c-5.5,0-6.7-1.4-7.1-4.1c0-0.3-0.3-0.5-0.6-0.5h-2.7c-0.3,0-0.6,0.3-0.6,0.6c0,3.5,1.9,7.6,10.9,7.6
				C422.6,223.5,426.4,221,426.4,216.5L426.4,216.5z"/>
		</g>
		<g>
			<path class="st8" d="M198.8,145c0-20.4-16.6-37-37-37s-37,16.6-37,37s16.6,37,37,37S198.8,165.5,198.8,145z"/>
			<g>
				<path class="st4" d="M161.8,134.1c-6,0-10.9,4.9-10.9,10.9s4.9,10.9,10.9,10.9s10.9-4.9,10.9-10.9l0,0
					C172.7,139,167.8,134.1,161.8,134.1z"/>
				<circle class="st4" cx="177.5" cy="130.1" r="5"/>
				<path class="st4" d="M183.6,135.1l-0.2-0.5l-0.3,0.4c-0.8,0.9-1.8,1.6-3,2.1l-0.3,0.1l0.1,0.3c4.2,10-0.6,21.5-10.6,25.6
					s-21.5-0.6-25.6-10.6c-4.2-10,0.6-21.5,10.6-25.6c5.1-2.1,10.9-2,15.9,0.4l0.3,0.1l0.1-0.3c0.5-1.1,1.2-2.1,2.2-2.9l0.4-0.3
					l-0.4-0.2c-3.4-1.8-7.2-2.7-11-2.7c-13.3,0-24,10.7-24,24s10.7,24,24,24s24-10.7,24-24C185.8,141.6,185,138.2,183.6,135.1
					L183.6,135.1z"/>
			</g>
		</g>
		<g>
			<path class="st8" d="M455.1,520.6c0-20.4-16.6-37-37-37s-37,16.6-37,37c0,20.4,16.6,37,37,37
				C438.6,557.6,455.1,541.1,455.1,520.6z"/>
			<path class="st4" d="M418.1,493.6c-14.9,0-27,12.1-27,27c0,14.9,12.1,27,27,27s27-12.1,27-27C445.1,505.7,433,493.6,418.1,493.6z
				 M393.8,520.6c0-3.5,0.8-6.9,2.1-9.9l11.6,31.7C399.4,538.5,393.8,530.2,393.8,520.6z M418.1,544.9c-2.4,0-4.7-0.3-6.9-1
				l7.3-21.2l7.5,20.4c0.1,0.1,0.1,0.2,0.2,0.3C423.6,544.4,420.9,544.9,418.1,544.9z M421.4,509.3c1.5-0.1,2.8-0.2,2.8-0.2
				c1.3-0.2,1.2-2.1-0.2-2c0,0-3.9,0.3-6.5,0.3c-2.4,0-6.4-0.3-6.4-0.3c-1.3-0.1-1.5,1.9-0.2,2c0,0,1.2,0.2,2.5,0.2l3.8,10.4
				l-5.3,15.9l-8.8-26.3c1.5-0.1,2.8-0.2,2.8-0.2c1.3-0.2,1.2-2.1-0.2-2c0,0-3.9,0.3-6.5,0.3c-0.5,0-1,0-1.6,0
				c4.3-6.6,11.8-10.9,20.3-10.9c6.3,0,12.1,2.4,16.4,6.4c-0.1,0-0.2,0-0.3,0c-2.4,0-4.1,2.1-4.1,4.3c0,2,1.2,3.7,2.4,5.7
				c0.9,1.6,2,3.7,2,6.7c0,2.1-0.8,4.5-1.9,7.8l-2.4,8.1L421.4,509.3L421.4,509.3z M430.3,541.6l7.4-21.4c1.4-3.5,1.9-6.2,1.9-8.7
				c0-0.9-0.1-1.7-0.2-2.5c1.9,3.5,3,7.4,3,11.6C442.4,529.6,437.5,537.4,430.3,541.6z"/>
		</g>
		<g>
			<path class="st8" d="M200.9,549c0-20.2-16.3-36.5-36.5-36.5s-36.5,16.3-36.5,36.5s16.3,36.5,36.5,36.5
				C184.5,585.5,200.9,569.2,200.9,549z"/>
			<polygon class="st4" points="147.6,531.3 146,539.4 178.8,539.4 177.7,544.5 144.9,544.5 143.4,552.6 176.1,552.6 174.3,561.8 
				161.1,566.2 149.6,561.8 150.4,557.8 142.4,557.8 140.4,567.5 159.4,574.7 181.2,567.5 188.4,531.3 			"/>
		</g>
		<g>
			<ellipse class="st8" cx="40" cy="317.9" rx="40" ry="40"/>
			
				<g id="punchout" inkscape:version="0.48.1 r9760" sodipodi:docname="twitter_bootstrap_logo.svg" xmlns:cc="http://creativecommons.org/ns#" xmlns:dc="http://purl.org/dc/elements/1.1/" xmlns:inkscape="http://www.inkscape.org/namespaces/inkscape" xmlns:rdf="http://www.w3.org/1999/02/22-rdf-syntax-ns#" xmlns:sodipodi="http://sodipodi.sourceforge.net/DTD/sodipodi-0.dtd" xmlns:svg="http://www.w3.org/2000/svg">
				<g>
					<path class="st4" d="M45.1,321.5c-0.8-0.7-2-1.1-3.5-1.1h-8.7v8.7h8.7c1.5,0,2.7-0.4,3.5-1.2c0.8-0.8,1.2-1.9,1.2-3.3
						C46.3,323.3,45.9,322.2,45.1,321.5z"/>
					<path class="st4" d="M43.9,315.9c0.8-0.7,1.2-1.6,1.2-2.9c0-1.4-0.4-2.4-1.1-3c-0.7-0.6-1.7-0.9-3.1-0.9h-8v7.7h8
						C42.2,316.8,43.1,316.5,43.9,315.9z"/>
					<path class="st4" d="M55,294.7H23c-4.4,0-8,3.6-8,8v32c0,4.4,3.6,8,8,8h32c4.4,0,8-3.6,8-8v-32C63,298.3,59.4,294.7,55,294.7z
						 M50.7,328.4c-0.4,1-1,1.8-1.8,2.5s-1.9,1.2-3.2,1.6s-2.9,0.6-4.7,0.6H28.1v-28h13.6c2.5,0,4.5,0.6,6,1.7
						c1.5,1.2,2.3,2.9,2.3,5.2c0,1.4-0.3,2.6-1,3.6s-1.7,1.8-3,2.3v0.1c1.7,0.4,3,1.2,3.9,2.4c0.9,1.3,1.3,2.9,1.3,4.8
						C51.3,326.4,51.1,327.4,50.7,328.4z"/>
				</g>
			</g>
		</g>
	</g>
	<g>
		<path class="st9" d="M217.6,317.9c0,43.7,28.3,80.8,67.5,94"/>
		<line class="st9" x1="285.1" y1="414.8" x2="239.7" y2="480.4"/>
		<path class="st9" d="M162.1,408.6c18,31,45.1,56.2,77.6,71.8"/>
		<path class="st10" d="M316.8,41.1c-55,0-106.2,16-149.3,43.7c-27.3,17.5-51.4,39.7-71,65.5"/>
		<path class="st11" d="M250.8,479.4c0-6.1-4.9-11.1-11-11.1s-11.1,4.9-11.1,11.1c0,6.1,4.9,11,11.1,11
			C245.8,490.4,250.8,485.5,250.8,479.4z"/>
		<path class="st11" d="M225.7,317.9c0-4.7-3.8-8.5-8.5-8.5s-8.5,3.8-8.5,8.5s3.8,8.5,8.5,8.5S225.7,322.7,225.7,317.9z"/>
		<path class="st11" d="M106.5,150.3c0-5.5-4.5-10-10-10s-10,4.5-10,10s4.5,10,10,10S106.5,155.9,106.5,150.3z"/>
		<path class="st11" d="M329.8,140.3c0-7.2-5.8-13-13-13s-13,5.8-13,13s5.8,13,13,13S329.8,147.4,329.8,140.3z"/>
		<line class="st9" x1="316.8" y1="41.1" x2="316.8" y2="140.3"/>
		<path class="st9" d="M316.8,140.3c-31,0-60.2,7.9-85.6,21.8c-35.3,19.3-63.3,50.1-79.1,87.4c-9,21.4-14,44.9-14,69.6"/>
		<line class="st9" x1="140" y1="317.9" x2="217.6" y2="317.9"/>
		<g>
			<path class="st11" d="M322.9,410c0-18.8-15.2-34-34-34s-34,15.2-34,34c0,18.8,15.2,34,34,34S322.9,428.9,322.9,410z"/>
			<g>
				<g>
					<path class="st3" d="M271.4,391c-3.5,5.1-3.1,11.7-0.4,17.1c0.1,0.1,0.1,0.3,0.2,0.4c0,0.1,0.1,0.2,0.1,0.2
						c0,0,0.1,0.1,0.1,0.1c0,0.1,0.1,0.2,0.1,0.3c0.1,0.1,0.2,0.3,0.3,0.4c0,0.1,0.1,0.2,0.2,0.2c0.1,0.2,0.2,0.3,0.3,0.5
						c0,0.1,0.1,0.1,0.1,0.2c0.1,0.2,0.3,0.4,0.4,0.6c0,0,0,0,0,0c0,0,0,0.1,0.1,0.1c0.1,0.2,0.3,0.4,0.4,0.5c0,0.1,0.1,0.1,0.1,0.2
						c0.1,0.2,0.2,0.3,0.4,0.5c0,0.1,0.1,0.1,0.1,0.2c0.2,0.2,0.3,0.4,0.5,0.6c0,0,0,0,0,0c0,0,0,0,0,0c0.2,0.2,0.3,0.4,0.5,0.5
						c0.1,0.1,0.1,0.1,0.2,0.2c0.1,0.1,0.3,0.3,0.4,0.4c0.1,0.1,0.1,0.1,0.2,0.2c0.2,0.2,0.4,0.3,0.6,0.5c0,0,0,0,0,0
						c0,0,0.1,0.1,0.1,0.1c0.2,0.1,0.3,0.3,0.5,0.4c0.1,0.1,0.1,0.1,0.2,0.2c0.1,0.1,0.3,0.2,0.4,0.3c0.1,0.1,0.2,0.1,0.2,0.2
						c0.2,0.1,0.3,0.2,0.5,0.3c0.1,0,0.1,0.1,0.2,0.1c0,0,0,0,0,0c0.2,0.1,0.3,0.2,0.5,0.3c0.1,0,0.1,0.1,0.2,0.1
						c0.2,0.2,0.5,0.3,0.7,0.4c0.1,0,0.1,0.1,0.2,0.1c0.2,0.1,0.4,0.2,0.5,0.3c0.1,0.1,0.2,0.1,0.3,0.2c0.1,0.1,0.3,0.1,0.4,0.2
						c0,0,0.1,0,0.1,0c0.1,0,0.1,0.1,0.2,0.1c0.2,0.1,0.4,0.2,0.6,0.3c0,0,0.1,0,0.1,0.1c0.2,0.1,0.5,0.2,0.7,0.3
						c0.1,0,0.1,0,0.2,0.1c0.2,0.1,0.5,0.2,0.7,0.3c0,0,0.1,0,0.1,0c0.3,0.1,0.5,0.2,0.8,0.2c0.1,0,0.1,0,0.2,0.1
						c0.3,0.1,0.5,0.2,0.8,0.2c17.1,3.1,22.1-10.3,22.1-10.3c-4.2,5.4-11.6,6.9-18.6,5.3c-0.3-0.1-0.5-0.1-0.8-0.2
						c-0.1,0-0.1,0-0.2-0.1c-0.3-0.1-0.5-0.2-0.8-0.2c0,0-0.1,0-0.1,0c-0.2-0.1-0.4-0.2-0.7-0.2c-0.1,0-0.1,0-0.2-0.1
						c-0.2-0.1-0.5-0.2-0.7-0.3c-0.1,0-0.1,0-0.1-0.1c-0.2-0.1-0.4-0.2-0.6-0.3c-0.1,0-0.1-0.1-0.2-0.1c-0.2-0.1-0.3-0.2-0.5-0.2
						c-0.1-0.1-0.2-0.1-0.3-0.2c-0.2-0.1-0.4-0.2-0.6-0.3c-0.1,0-0.1-0.1-0.2-0.1c-0.2-0.1-0.5-0.3-0.7-0.4c-0.1,0-0.1-0.1-0.2-0.1
						c-0.2-0.1-0.4-0.2-0.5-0.3c-0.1,0-0.1-0.1-0.2-0.1c-0.2-0.1-0.3-0.2-0.5-0.4c-0.1-0.1-0.1-0.1-0.2-0.2
						c-0.1-0.1-0.3-0.2-0.4-0.3c-0.1-0.1-0.1-0.1-0.2-0.2c-0.2-0.2-0.4-0.3-0.6-0.5c0,0,0,0-0.1-0.1c-0.2-0.2-0.4-0.4-0.6-0.5
						c-0.1-0.1-0.1-0.1-0.2-0.2c-0.1-0.1-0.3-0.3-0.4-0.4c-0.1-0.1-0.1-0.1-0.2-0.2c-0.2-0.2-0.3-0.4-0.5-0.5c0,0,0,0,0,0
						c-0.2-0.2-0.3-0.4-0.5-0.6c0-0.1-0.1-0.1-0.1-0.2c-0.1-0.2-0.2-0.3-0.4-0.5c0-0.1-0.1-0.1-0.1-0.2c-0.1-0.2-0.3-0.4-0.4-0.6
						c-3.9-5.3-5.3-12.7-2.2-18.7"/>
					<path class="st3" d="M282.4,386.7c-2.6,3.7-2.4,8.6-0.4,12.5c0.3,0.7,0.7,1.3,1.1,1.9c0.4,0.6,0.8,1.2,1.3,1.6
						c0.2,0.2,0.4,0.4,0.6,0.6c0,0,0.1,0.1,0.2,0.1c0.2,0.2,0.4,0.4,0.6,0.5c0,0,0,0,0,0c0,0,0,0,0,0c0.2,0.2,0.4,0.4,0.7,0.6
						c0.1,0,0.1,0.1,0.2,0.1c0.2,0.2,0.5,0.4,0.7,0.5c0,0,0,0,0,0c0.1,0.1,0.2,0.1,0.3,0.2c0,0,0.1,0.1,0.2,0.1
						c0.2,0.1,0.4,0.2,0.5,0.3c0,0,0.1,0,0.1,0c0.2,0.1,0.3,0.2,0.5,0.3c0.1,0,0.1,0.1,0.2,0.1c0.1,0.1,0.2,0.1,0.3,0.2
						c0,0,0,0,0.1,0c0.2,0.1,0.5,0.2,0.7,0.3c0.1,0,0.1,0,0.2,0.1c0.2,0.1,0.4,0.2,0.6,0.2c0.1,0,0.2,0.1,0.2,0.1
						c0.2,0.1,0.3,0.1,0.5,0.2c0.1,0,0.2,0.1,0.2,0.1c0.2,0.1,0.5,0.2,0.7,0.2c13.2,2.2,16.3-8,16.3-8c-2.8,4-8.1,5.9-13.8,4.4
						c-0.3-0.1-0.5-0.1-0.7-0.2c-0.1,0-0.1,0-0.2-0.1c-0.2-0.1-0.4-0.1-0.5-0.2c-0.1,0-0.2-0.1-0.2-0.1c-0.2-0.1-0.4-0.1-0.6-0.2
						c-0.1,0-0.1,0-0.2-0.1c-0.2-0.1-0.5-0.2-0.7-0.3c-0.1-0.1-0.2-0.1-0.3-0.2c-0.1,0-0.1-0.1-0.2-0.1c-0.2-0.1-0.3-0.2-0.4-0.2
						c0,0-0.1,0-0.1-0.1c-0.2-0.1-0.4-0.2-0.5-0.3c-0.1,0-0.1-0.1-0.2-0.1c-0.1-0.1-0.2-0.1-0.3-0.2c-0.2-0.2-0.5-0.3-0.7-0.5
						c-0.1,0-0.1-0.1-0.2-0.1c-2.5-2-4.5-4.7-5.4-7.7c-1-3.2-0.8-6.7,0.9-9.6"/>
					<path class="st3" d="M291.6,383.5c-1.5,2.2-1.7,5-0.6,7.4c1.1,2.6,3.4,4.6,6,5.6c0.1,0,0.2,0.1,0.3,0.1c0,0,0.1,0,0.1,0
						c0.2,0,0.3,0.1,0.5,0.1c7.3,1.4,9.3-3.7,9.8-4.5c-1.7,2.5-4.7,3.1-8.2,2.2c-0.3-0.1-0.6-0.2-0.9-0.3c-0.3-0.1-0.7-0.3-1-0.4
						c-0.6-0.3-1.2-0.7-1.8-1.1c-3.2-2.4-5.2-7.1-3.1-10.8"/>
				</g>
				<g>
					<path class="st3" d="M303.3,426.1l-0.2-0.7c-0.1-0.5-0.5-0.8-1.4-0.8h-3.6c-0.1,0-0.2,0-0.2,0.1l-1.3,6.4c0,0.1,0,0.1,0,0.2
						c0,0,0.2,0,0.2,0h1.2c0.1,0,0.2,0,0.3,0c0,0,0.1-0.1,0.1-0.2l0.4-2.2l0.5-2.5c0-0.1,0.1-0.1,0.2-0.1l3.5,0
						C303.3,426.2,303.3,426.2,303.3,426.1"/>
					<path class="st3" d="M308.3,423.5c-0.1,0-1.6,0-1.6,0c-0.1,0-0.2,0.1-0.2,0.2l-2.7,4c0,0.1-0.1,0.1-0.1,0l-0.2-0.9
						c0-0.1-0.1-0.1-0.2-0.1h-1.8c-0.1,0-0.1,0.1-0.1,0.1l0.8,2.8c0,0.1,0,0.2,0,0.3l-0.4,1.4c0,0.1,0,0.1,0.1,0.1h1.7
						c0.1,0,0.2,0,0.2-0.1l0.4-1.4c0-0.1,0.1-0.2,0.1-0.3l4.5-5.9c0.1-0.1,0-0.1,0-0.1L308.3,423.5z"/>
					<path class="st3" d="M290,424.6h-1.6c-0.1,0-0.2,0-0.2,0.1l-0.5,2.5l-0.5,2.4c0,0.1-0.1,0.1-0.2,0.1h-1c-1,0-0.9-0.7-0.7-1.6
						c0,0,0.7-3.3,0.7-3.3c0-0.1,0-0.1-0.1-0.1h-1.5c-0.1,0-0.2,0-0.2,0.1l-0.6,3.3c-0.3,1.8-0.3,3.3,1.7,3.4c0,0,3.2,0,3.2,0
						c0.1,0,0.2,0,0.2-0.1l0.7-3.3L290,424.6C290,424.7,290,424.6,290,424.6z"/>
					<path class="st3" d="M274.1,424.6h-1.7c-0.1,0-0.2,0-0.2,0.1l-0.3,1.3c0,0.1,0,0.1,0.1,0.1h1.6c0.1,0,0.2-0.1,0.2-0.2
						L274.1,424.6C274.1,424.7,274.2,424.6,274.1,424.6z"/>
					<path class="st3" d="M271.9,426.7c-0.1,0-0.2,0.1-0.2,0.1l-0.2,1l-0.5,2.3c0,0-0.3,1.2-0.3,1.3c0,0-0.2,0.9-0.8,0.9
						c-0.3,0-0.5-0.1-0.5-0.1h0c-0.2,0-0.2,0.1-0.2,0.2l-0.3,1.5c0,0.1,0,0.2,0.1,0.2c0,0,0.7,0.1,1.3,0.1h0.1c1.3,0,2-0.8,2.4-2.8
						l0.5-2.4l0.5-2.2c0-0.1,0-0.2-0.1-0.2"/>
					<path class="st3" d="M294,424.6c-2.9,0-3.6,1.8-3.9,3.5c-0.4,1.8-0.3,3.2,2.6,3.2h0.1c1.2,0,2.6,0,2.6,0c0.1,0,0.2-0.1,0.2-0.2
						l0.3-1.1c0-0.1,0-0.1-0.1-0.1h-2.7c-1,0-1.3-0.3-1.3-1c0-0.1,0.1-0.3,0.2-0.3h4.1c0.2,0,0.2-0.1,0.2-0.1
						C296.7,426.7,296.7,424.6,294,424.6 M294.7,427.4c0,0.1-0.3,0.1-0.3,0.1l-2.2,0c-0.1,0-0.1-0.1-0.1-0.2c0,0,0-0.1,0-0.1
						c0.2-0.6,0.7-0.9,1.5-0.9c0.9,0,1.1,0.5,1.1,1"/>
					<path class="st3" d="M281.6,429.5c0,0,0.8-2,1-3.1c0.2-1.5-0.5-3.7-3.4-3.7c-2.9,0-4.2,2.1-4.6,4.4c-0.5,2.3,0.1,4.3,3,4.3
						l4.4,0c0.1,0,0.2-0.1,0.2-0.1l0.4-1.4c0-0.1,0-0.1-0.1-0.1l-0.4,0l-0.4,0C281.6,429.6,281.6,429.6,281.6,429.5
						C281.6,429.5,281.6,429.5,281.6,429.5 M280.1,428.3l-0.3,1.1c0,0.1-0.1,0.1-0.2,0.1h-1.7c-1.3,0-1.6-1-1.3-2.5
						c0.3-1.5,0.9-2.5,2.2-2.6c1.7-0.1,2.1,1.1,1.7,2.5L280.1,428.3z"/>
				</g>
			</g>
		</g>
		<path class="st11" d="M150,319c0-6.6-5.4-12-12-12s-12,5.4-12,12s5.4,12,12,12C144.7,331,150,325.6,150,319z"/>
		<g>
			<path class="st11" d="M201.9,408.6c0-22.1-17.9-40-40-40s-40,17.9-40,40s17.9,40,40,40S201.9,430.7,201.9,408.6z"/>
			<path class="st4" d="M152.9,424.7c0,0.2-0.3,0.4-0.6,0.4c-0.4,0-0.6-0.1-0.6-0.4c0-0.2,0.3-0.4,0.6-0.4
				C152.6,424.2,152.9,424.4,152.9,424.7z M149.5,424.2c-0.1,0.2,0.1,0.5,0.5,0.5c0.3,0.1,0.6,0,0.7-0.2s-0.1-0.5-0.5-0.6
				C149.9,423.9,149.6,424,149.5,424.2L149.5,424.2z M154.3,424c-0.3,0.1-0.5,0.3-0.5,0.5s0.3,0.4,0.6,0.3s0.5-0.3,0.5-0.5
				S154.6,424,154.3,424z M161.5,382.3c-15.1,0-26.7,11.5-26.7,26.6c0,12.1,7.6,22.4,18.5,26c1.4,0.3,1.9-0.6,1.9-1.3
				c0-0.7,0-4.4,0-6.7c0,0-7.6,1.6-9.2-3.2c0,0-1.2-3.2-3-4c0,0-2.5-1.7,0.2-1.7c0,0,2.7,0.2,4.2,2.8c2.4,4.2,6.4,3,7.9,2.3
				c0.3-1.7,1-3,1.7-3.7c-6.1-0.7-12.2-1.6-12.2-12c0-3,0.8-4.5,2.6-6.4c-0.3-0.7-1.2-3.6,0.3-7.4c2.3-0.7,7.5,2.9,7.5,2.9
				c2.2-0.6,4.5-0.9,6.8-0.9s4.7,0.3,6.8,0.9c0,0,5.2-3.7,7.5-2.9c1.5,3.8,0.6,6.7,0.3,7.4c1.7,1.9,2.8,3.4,2.8,6.4
				c0,10.5-6.4,11.3-12.5,12c1,0.9,1.9,2.5,1.9,5.1c0,3.7,0,8.2,0,9.1c0,0.7,0.5,1.6,1.9,1.3c10.9-3.6,18.3-13.9,18.3-26
				C188.8,393.7,176.6,382.3,161.5,382.3z M145.4,419.8c-0.1,0.1-0.1,0.4,0.1,0.6s0.4,0.3,0.6,0.1c0.1-0.1,0.1-0.4-0.1-0.6
				C145.8,419.8,145.5,419.7,145.4,419.8z M144.2,418.9c-0.1,0.1,0,0.3,0.3,0.4c0.2,0.1,0.4,0.1,0.5-0.1c0.1-0.1,0-0.3-0.3-0.4
				C144.5,418.8,144.3,418.8,144.2,418.9z M147.7,422.8c-0.2,0.1-0.1,0.5,0.1,0.7c0.3,0.3,0.6,0.3,0.7,0.1c0.1-0.1,0.1-0.5-0.1-0.7
				S147.9,422.6,147.7,422.8z M146.5,421.2c-0.2,0.1-0.2,0.4,0,0.6c0.2,0.3,0.5,0.4,0.6,0.3c0.2-0.1,0.2-0.4,0-0.7
				C146.9,421.2,146.7,421.1,146.5,421.2L146.5,421.2z"/>
		</g>
		<g>
			<path class="st11" d="M359.4,42c0-23.2-18.8-42-42-42s-42,18.8-42,42s18.8,42,42,42S359.4,65.2,359.4,42z"/>
			<g>
				<path class="st4" d="M331.7,38.6c-2.7-1.2-3.5-1.7-4-2.7c-0.2-0.4-0.3-0.7-0.3-1.3c0-1.8,1.3-2.9,3.4-2.8
					c1.4,0.1,2.3,0.7,3.2,1.9c0.3,0.4,0.6,0.7,0.6,0.7c1.8-1.1,4.8-3.1,4.8-3.2c-0.1-0.3-1-1.5-1.6-2.2c-1.2-1.3-2.5-2-4.3-2.5
					c-1.2-0.3-4-0.4-5.2-0.2c-3.7,0.7-6.3,3.1-7,6.5c-0.2,1-0.1,3.4,0.1,4.4c0.3,1.2,1.1,2.6,1.9,3.4c1.4,1.5,2.9,2.4,6.4,4
					c3.1,1.3,4.2,2,4.7,2.7c0.4,0.6,0.5,0.9,0.5,1.7c0,0.9-0.3,1.5-0.9,2.1c-1.5,1.3-4.5,1.5-6.7,0.3c-0.8-0.4-2-1.6-2.6-2.5
					l-0.4-0.6l-2,1.1c-1.1,0.6-2.2,1.3-2.5,1.5s-0.6,0.4-0.6,0.4c-0.1,0.1,1.2,1.9,1.8,2.6c1.6,1.8,4.2,3.1,7,3.6
					c1.3,0.2,4,0.3,5.2,0.1c3.8-0.6,6.5-2.6,7.6-5.4c1-2.6,0.7-6.1-0.8-8.3C338.7,42.1,336.6,40.7,331.7,38.6z"/>
				<path class="st4" d="M317.5,32.3v-2.8v-2.8h-12c-6.6,0-12,0-12,0.1c0,0-0.1,1.3-0.1,2.8v2.7h4.5h4.5V45v12.7h3.1h3.1V45V32.3
					h4.5H317.5z"/>
			</g>
		</g>
	</g>
</g>
</svg>
